<?xml version="1.0" encoding="UTF-8"?>
<svg width="434px" height="434px" viewBox="0 0 434 434" version="1.1" xmlns="http://www.w3.org/2000/svg" xmlns:xlink="http://www.w3.org/1999/xlink">
    <title>Group</title>
    <defs>
        <linearGradient x1="50%" y1="0%" x2="50%" y2="99.3084882%" id="linearGradient-1">
            <stop stop-color="#FFFFFF" offset="0%"></stop>
            <stop stop-color="#FFFFFF" offset="100%"></stop>
        </linearGradient>
        <path d="M115.374834,-4.66128138e-15 L296.625166,4.66128138e-15 C336.743509,-2.70833872e-15 351.29139,4.1771525 365.958057,12.0209717 C380.624723,19.8647908 392.135209,31.3752767 399.979028,46.0419433 C407.822847,60.70861 412,75.2564907 412,115.374834 L412,296.625166 C412,336.743509 407.822847,351.29139 399.979028,365.958057 C392.135209,380.624723 380.624723,392.135209 365.958057,399.979028 C351.29139,407.822847 336.743509,412 296.625166,412 L115.374834,412 C75.2564907,412 60.70861,407.822847 46.0419433,399.979028 C31.3752767,392.135209 19.8647908,380.624723 12.0209717,365.958057 C4.1771525,351.29139 1.80555915e-15,336.743509 -3.10752092e-15,296.625166 L3.10752092e-15,115.374834 C-1.80555915e-15,75.2564907 4.1771525,60.70861 12.0209717,46.0419433 C19.8647908,31.3752767 31.3752767,19.8647908 46.0419433,12.0209717 C60.70861,4.1771525 75.2564907,2.70833872e-15 115.374834,-4.66128138e-15 Z" id="path-2"></path>
        <filter x="-4.5%" y="-3.5%" width="109.0%" height="109.0%" filterUnits="objectBoundingBox" id="filter-4">
            <feMorphology radius="0.5" operator="dilate" in="SourceAlpha" result="shadowSpreadOuter1"></feMorphology>
            <feOffset dx="0" dy="4" in="shadowSpreadOuter1" result="shadowOffsetOuter1"></feOffset>
            <feGaussianBlur stdDeviation="5" in="shadowOffsetOuter1" result="shadowBlurOuter1"></feGaussianBlur>
            <feColorMatrix values="0 0 0 0 0   0 0 0 0 0   0 0 0 0 0  0 0 0 0.15 0" type="matrix" in="shadowBlurOuter1"></feColorMatrix>
        </filter>
        <linearGradient x1="50%" y1="0%" x2="50%" y2="100%" id="linearGradient-5">
            <stop stop-color="#00D45D" offset="0.0298773492%"></stop>
            <stop stop-color="#00C7F7" offset="100%"></stop>
        </linearGradient>
        <path d="M307.030829,183.953125 L307.030829,183.953125 C301.508901,168.09375 286.715588,156.882812 269.331741,156.882812 L269.263569,156.882812 L237.290925,156.882812 L237.290925,62 L223.861051,63.9140625 C193.388189,68.2890625 169.664351,83.8066406 153.303083,109.919922 C141.509336,128.787109 136.05558,149.636719 133.533218,165.154297 C116.013026,178.689453 100.74251,197.351562 88.1306991,220.59375 C77.4958749,240.212891 68.7016934,263.25 61.9526704,289.021484 C50.5679548,332.566406 49.0681719,368.660156 49,370.164062 L49,412 L72.5193226,412 L72.5193226,370.984375 C72.7920104,364.900391 80.2227529,232.078125 151.257924,181.423828 L155.416413,178.484375 L156.098133,173.425781 C159.711246,147.107422 171.914025,103.699219 213.771602,90.3691406 L213.771602,180.535156 L269.263569,180.535156 L269.331741,180.535156 C276.421624,180.535156 282.488927,185.115234 284.67043,191.472656 L284.67043,191.609375 C294.078159,219.363281 310.166739,254.158203 335.322188,270.496094 L327.755102,298.933594 C322.43769,318.962891 304.440295,333.523438 283.102475,333.523438 L281.670864,333.523438 L281.739036,333.523438 C260.673904,332.908203 238.722536,335.642578 216.49848,341.726563 L207.840643,344.119141 L207.840643,412 L231.359965,412 L231.359965,362.166016 C244.858011,358.816406 260.333044,356.902344 276.217108,356.902344 C277.921407,356.902344 279.557534,356.902344 281.261832,356.970703 L280.989145,356.970703 L282.897959,356.970703 C315.143291,356.970703 342.275727,335.095703 350.320017,305.359375 L350.456361,304.880859 L363,257.576172 L353.660443,253.542969 C336.276596,246.091797 319.64264,221.345703 307.030829,183.953125 L307.030829,183.953125 Z" id="path-6"></path>
        <filter x="-1.1%" y="-1.0%" width="102.2%" height="102.0%" filterUnits="objectBoundingBox" id="filter-7">
            <feGaussianBlur stdDeviation="2.5" in="SourceAlpha" result="shadowBlurInner1"></feGaussianBlur>
            <feOffset dx="0" dy="2" in="shadowBlurInner1" result="shadowOffsetInner1"></feOffset>
            <feComposite in="shadowOffsetInner1" in2="SourceAlpha" operator="arithmetic" k2="-1" k3="1" result="shadowInnerInner1"></feComposite>
            <feColorMatrix values="0 0 0 0 0   0 0 0 0 0   0 0 0 0 0  0 0 0 0.2 0" type="matrix" in="shadowInnerInner1"></feColorMatrix>
        </filter>
    </defs>
    <g id="Page-1" stroke="none" stroke-width="1" fill="none" fill-rule="evenodd">
        <g id="Icon-4" transform="translate(-39.000000, -43.000000)">
            <g id="Group" transform="translate(50.000000, 50.000000)">
                <mask id="mask-3" fill="white">
                    <use xlink:href="#path-2"></use>
                </mask>
                <g id="Rectangle">
                    <use fill="black" fill-opacity="1" filter="url(#filter-4)" xlink:href="#path-2"></use>
                    <use fill="url(#linearGradient-1)" fill-rule="evenodd" xlink:href="#path-2"></use>
                </g>
                <g id="Path" fill-rule="nonzero" mask="url(#mask-3)">
                    <use fill="url(#linearGradient-5)" xlink:href="#path-6"></use>
                    <use fill="black" fill-opacity="1" filter="url(#filter-7)" xlink:href="#path-6"></use>
                </g>
            </g>
        </g>
    </g>
</svg>